<?xml version="1.0" encoding="UTF-8" standalone="no"?>
<svg
   height="570.42"
   viewBox="0,0,74.2468,143.474"
   width="464.09"
   version="1.1"
   id="svg16"
   sodipodi:docname="gnome-logo.svg"
   inkscape:version="1.2.2 (b0a8486541, 2022-12-01)"
   xmlns:inkscape="http://www.inkscape.org/namespaces/inkscape"
   xmlns:sodipodi="http://sodipodi.sourceforge.net/DTD/sodipodi-0.dtd"
   xmlns="http://www.w3.org/2000/svg"
   xmlns:svg="http://www.w3.org/2000/svg">
  <style
     id="style2">
   path {
      fill: black;
   }
   @media (prefers-color-scheme: dark) {
      path { fill: white; }
   }
   </style>
  <defs
     id="defs20">
    <filter
       inkscape:collect="always"
       style="color-interpolation-filters:sRGB"
       id="filter1755"
       x="-0.083840161"
       y="-0.067846247"
       width="1.1676803"
       height="1.1356925">
      <feGaussianBlur
         inkscape:collect="always"
         stdDeviation="3.9952336"
         id="feGaussianBlur1757" />
    </filter>
  </defs>
  <sodipodi:namedview
     id="namedview18"
     pagecolor="#505050"
     bordercolor="#eeeeee"
     borderopacity="1"
     inkscape:showpageshadow="0"
     inkscape:pageopacity="0"
     inkscape:pagecheckerboard="0"
     inkscape:deskcolor="#505050"
     showgrid="false"
     inkscape:zoom="0.8239543"
     inkscape:cx="117.11815"
     inkscape:cy="285.20999"
     inkscape:window-width="1366"
     inkscape:window-height="699"
     inkscape:window-x="0"
     inkscape:window-y="0"
     inkscape:window-maximized="1"
     inkscape:current-layer="g1753" />
  <metadata
     id="metadata2" />
  <g
     inkscape:groupmode="layer"
     id="g1753"
     inkscape:label="halo"
     style="filter:url(#filter1755);fill:#ffffff;fill-opacity:1;opacity:1">
    <path
       d="m58.791 93.913c1.107 8.454-6.202 12.629-13.36 7.179-22.787-17.349 37.729-26.004 33.74-49.706-3.311-19.674-63.676-13.617-70.55 17.167-4.653 20.821 19.153 49.707 43.993 49.707 12.22 0 26.315-11.034 28.952-25.012 2.014-10.659-23.699-6.388-22.775.665z"
       id="path1743"
       transform="matrix(1.18866,0,0,1.19506,-20.12,1.25)"
       inkscape:label="sole"
       style="fill:#ffffff;fill-opacity:1" />
    <path
       d="m11.445 48.453c5.241-2.307.675-24.872-8.237-18.718-8.908 6.155 2.996 21.024 8.237 18.718z"
       id="path1745"
       transform="matrix(1.18866,0,0,1.19506,-20.12,1.25)"
       inkscape:label="little"
       style="fill:#ffffff;fill-opacity:1" />
    <path
       d="m26.212 36.642c6.239-1.272 6.581-26.864-4.545-22.273-11.128 4.592-1.689 23.547 4.545 22.273z"
       id="path1747"
       transform="matrix(1.18866,0,0,1.19506,-20.12,1.25)"
       inkscape:label="third"
       style="fill:#ffffff;fill-opacity:1" />
    <path
       d="m45.217 30.699c7.369.45 15.454-28.122 1.604-26.325-13.845 1.797-8.976 25.875-1.604 26.325z"
       id="path1749"
       transform="matrix(1.18866,0,0,1.19506,-20.12,1.25)"
       inkscape:label="long"
       style="fill:#ffffff;fill-opacity:1" />
    <path
       d="m86.068 0c-24.602 0-29.217 35.041-15.377 35.041 13.838 0 39.98-35.041 15.377-35.041z"
       id="path1751"
       inkscape:label="hallux"
       transform="matrix(1.18866,0,0,1.19506,-20.12,1.25)"
       style="fill:#ffffff;fill-opacity:1" />
  </g>
  <g
     inkscape:groupmode="layer"
     id="layer1"
     inkscape:label="logo"
     sodipodi:insensitive="true">
    <path
       d="m 58.791,93.913 c 1.107,8.454 -6.202,12.629 -13.36,7.179 C 22.644,83.743 83.16,75.088 79.171,51.386 75.86,31.712 15.495,37.769 8.621,68.553 3.968,89.374 27.774,118.26 52.614,118.26 c 12.22,0 26.315,-11.034 28.952,-25.012 C 83.58,82.589 57.867,86.86 58.791,93.913 Z"
       id="path12"
       transform="matrix(1.18866,0,0,1.19506,-20.12,1.25)"
       inkscape:label="sole" />
    <path
       d="M 11.445,48.453 C 16.686,46.146 12.12,23.581 3.208,29.735 -5.7,35.89 6.204,50.759 11.445,48.453 Z"
       id="path8"
       transform="matrix(1.18866,0,0,1.19506,-20.12,1.25)"
       inkscape:label="little" />
    <path
       d="M 26.212,36.642 C 32.451,35.37 32.793,9.778 21.667,14.369 10.539,18.961 19.978,37.916 26.212,36.642 Z"
       id="path10"
       transform="matrix(1.18866,0,0,1.19506,-20.12,1.25)"
       inkscape:label="third" />
    <path
       d="M 45.217,30.699 C 52.586,31.149 60.671,2.577 46.821,4.374 32.976,6.171 37.845,30.249 45.217,30.699 Z"
       id="path6"
       transform="matrix(1.18866,0,0,1.19506,-20.12,1.25)"
       inkscape:label="long" />
    <path
       d="M 86.068,0 C 61.466,0 56.851,35.041 70.691,35.041 84.529,35.041 110.671,0 86.068,0 Z"
       id="path4"
       transform="matrix(1.18866,0,0,1.19506,-20.12,1.25)"
       inkscape:label="hallux" />
  </g>
</svg>
